<?xml version="1.0" standalone="no"?>
<!DOCTYPE svg PUBLIC "-//W3C//DTD SVG 1.1//EN" "http://www.w3.org/Graphics/SVG/1.1/DTD/svg11.dtd" >
<svg>
<metadata>
Created by FontForge 20110222 at Fri Jun  6 13:25:13 2014
 By Orthosie Webhosting
Typeface (c) Galdino Otten. 2013. All Rights Reserved
</metadata>
<defs>
<font id="FineSans" horiz-adv-x="200" >
  <font-face 
    font-family="Fine Sans"
    font-weight="400"
    font-stretch="normal"
    units-per-em="2048"
    panose-1="2 0 5 0 0 0 0 0 0 0"
    ascent="1638"
    descent="-410"
    x-height="1429"
    cap-height="1434"
    bbox="40 -442 2148 1716"
    underline-thickness="150"
    underline-position="-142"
    unicode-range="U+0020-2265"
  />
<missing-glyph horiz-adv-x="1101" 
d="M591 1653h-64v-208q-248 -2 -363 -178q-37 -56 -42 -120q-22 -257 79 -347q100 -88 316 -157q5 -2 10 -3v-625q-54 10 -109 34q-92 40 -154 106q-70 72 -70 146h-34v-318h22v7q0 28 19 53q21 27 48 27q8 0 16 -3q42 -15 109 -40q99 -37 153 -49v-203h64v197
q194 9 308 144q102 122 102 293q0 162 -95 263q-72 80 -315 152v581q128 -24 225 -129q72 -74 72 -149h34v318h-8q-1 -31 -27 -53l-10 -8v2q-20 -12 -44 -12q-12 0 -65 24q-79 35 -113 41h-4q-22 4 -45 7l-8 1h-3q-2 0 -4 1v205zM527 843q-147 46 -218 110q-20 18 -34 41
l-2 2q-7 12 -13 24q-6 14 -10 29q-4 10 -8 21q-5 30 -4 60q4 138 65 197q69 90 224 85v-569zM756 527q104 -87 100 -226q-3 -139 -71 -216q-68 -76 -188 -76h-6v608q107 -41 165 -90z" />
    <glyph glyph-name=".notdef" horiz-adv-x="1101" 
d="M591 1653h-64v-208q-248 -2 -363 -178q-37 -56 -42 -120q-22 -257 79 -347q100 -88 316 -157q5 -2 10 -3v-625q-54 10 -109 34q-92 40 -154 106q-70 72 -70 146h-34v-318h22v7q0 28 19 53q21 27 48 27q8 0 16 -3q42 -15 109 -40q99 -37 153 -49v-203h64v197
q194 9 308 144q102 122 102 293q0 162 -95 263q-72 80 -315 152v581q128 -24 225 -129q72 -74 72 -149h34v318h-8q-1 -31 -27 -53l-10 -8v2q-20 -12 -44 -12q-12 0 -65 24q-79 35 -113 41h-4q-22 4 -45 7l-8 1h-3q-2 0 -4 1v205zM527 843q-147 46 -218 110q-20 18 -34 41
l-2 2q-7 12 -13 24q-6 14 -10 29q-4 10 -8 21q-5 30 -4 60q4 138 65 197q69 90 224 85v-569zM756 527q104 -87 100 -226q-3 -139 -71 -216q-68 -76 -188 -76h-6v608q107 -41 165 -90z" />
    <glyph glyph-name=".null" 
 />
    <glyph glyph-name="nonmarkingreturn" 
 />
    <glyph glyph-name="space" unicode=" " 
 />
    <glyph glyph-name="space" unicode="&#xa0;" 
 />
    <glyph glyph-name="exclam" unicode="!" horiz-adv-x="450" 
d="M206 328l-49 1036q0 46 21 69t62 23q42 0 62.5 -23t20.5 -69l-80 -1036h-37zM116 167l82 84q15 14 29 14q13 0 31 -16l80 -86q12 -16 12 -29q0 -15 -14 -31l-80 -88q-20 -20 -29 -20q-16 0 -29 14l-88 101q-10 13 -10 26q0 15 16 31z" />
    <glyph glyph-name="quotedbl" unicode="&#x22;" horiz-adv-x="674" 
d="M196 1108h-30l-62 359q-4 23 -4 33q0 37 20.5 57t59.5 20t60.5 -19.5t21.5 -56.5q0 -8 -4 -34zM508 1108h-30l-62 359q-4 23 -4 33q0 37 20.5 57t59.5 20t60.5 -19.5t21.5 -56.5q0 -8 -4 -34z" />
    <glyph glyph-name="numbersign" unicode="#" horiz-adv-x="1302" 
d="M579 859l-85 -290h242l86 290h-243zM656 1434h93l-141 -477h242l142 477h92l-141 -477h259l-29 -97h-259l-83 -290h279l-30 -98h-280l-140 -472h-92l139 472h-240l-142 -472h-92l140 472h-273l30 98h271l86 290h-295l29 97h295z" />
    <glyph glyph-name="dollar" unicode="$" horiz-adv-x="1101" 
d="M591 1653h-64v-208q-248 -2 -363 -178q-37 -56 -42 -120q-22 -257 79 -347q100 -88 316 -157q5 -2 10 -3v-625q-54 10 -109 34q-92 40 -154 106q-70 72 -70 146h-34v-318h22v7q0 28 19 53q21 27 48 27q8 0 16 -3q42 -15 109 -40q99 -37 153 -49v-203h64v197
q194 9 308 144q102 122 102 293q0 162 -95 263q-72 80 -315 152v581q128 -24 225 -129q72 -74 72 -149h34v318h-8q-1 -31 -27 -53l-10 -8v2q-20 -12 -44 -12q-12 0 -65 24q-79 35 -113 41h-4q-22 4 -45 7l-8 1h-3q-2 0 -4 1v205zM527 843q-147 46 -218 110q-20 18 -34 41
l-2 2q-7 12 -13 24q-6 14 -10 29q-4 10 -8 21q-5 30 -4 60q4 138 65 197q69 90 224 85v-569zM756 527q104 -87 100 -226q-3 -139 -71 -216q-68 -76 -188 -76h-6v608q107 -41 165 -90z" />
    <glyph glyph-name="percent" unicode="%" horiz-adv-x="1686" 
d="M487 1459q98 0 190.5 -49t144.5 -139.5t52 -190.5q0 -99 -50.5 -188.5t-143 -140t-193.5 -50.5q-100 0 -192.5 50.5t-143.5 140t-51 188.5q0 100 52 190.5t144.5 139.5t190.5 49zM244 1066q13 -92 55.5 -173.5t106.5 -124.5q57 -40 114 -40q7 0 13 1q63 3 115 53t73 136
q13 54 13 111q0 32 -4 65q-12 93 -56 175.5t-107 124.5q-58 38 -115 38h-11q-61 -3 -113 -52t-73 -135q-15 -58 -15 -117q0 -31 4 -62zM335 -29l940 1461h84l-938 -1461h-86zM1199 738q97 0 190 -49.5t145 -140t52 -189.5q0 -100 -50.5 -189.5t-143 -139.5t-193.5 -50
t-193 50t-143 139.5t-51 189.5q0 99 52 189.5t144.5 140t190.5 49.5zM956 344q13 -92 55.5 -173.5t106.5 -124.5q59 -39 116 -39h11q63 3 115 53t73 136q13 54 13 111q0 32 -4 65q-12 93 -56 175.5t-107 124.5q-58 38 -115 38h-11q-61 -3 -113 -52t-73 -135
q-15 -58 -15 -117q0 -31 4 -62z" />
    <glyph glyph-name="ampersand" unicode="&#x26;" horiz-adv-x="1705" 
d="M999 196l-554 683q-118 0 -179.5 -86t-61.5 -204q0 -91 35.5 -181.5t101.5 -164.5q72 -83 165 -127t194 -44q88 0 169 33.5t130 90.5zM1342 0q-56 0 -139 25t-167 132q-67 -74 -175 -123.5t-241 -49.5q-229 0 -374.5 150.5t-145.5 385.5q0 161 76 266.5t225 151.5
q-42 61 -62.5 116t-20.5 111q0 105 77 197t182 92q68 0 142 -39q9 -6 18 -6q23 0 38 45h46l96 -281h-46q-55 133 -155 178q-85 37 -141 37q-65 0 -106 -45.5t-41 -117.5q0 -131 102 -267l531 -670q98 146 121 244q17 78 17 130q0 97 -62 97h-90v50h443v-50h-90
q-95 0 -145 -227q-31 -132 -155 -292q109 -136 248 -136h16q143 17 192 128l49 -1l-103 -231h-160z" />
    <glyph glyph-name="quotesingle" unicode="'" horiz-adv-x="362" 
d="M196 1108h-30l-62 359q-4 23 -4 33q0 37 20.5 57t59.5 20t60.5 -19.5t21.5 -56.5q0 -8 -4 -34z" />
    <glyph glyph-name="parenleft" unicode="(" horiz-adv-x="648" 
d="M100 601q2 277 99.5 530t268.5 442h80q-172 -242 -230 -438q-57 -193 -57 -523v-22q0 -330 57 -522q58 -196 230 -438h-80q-171 189 -268.5 441.5t-99.5 529.5z" />
    <glyph glyph-name="parenright" unicode=")" horiz-adv-x="648" 
d="M180 -370h-80q172 242 230 438q57 192 57 522v22q0 330 -57 523q-58 196 -230 438h80q171 -189 268.5 -442t99.5 -530q-2 -277 -99.5 -529.5t-268.5 -441.5z" />
    <glyph glyph-name="asterisk" unicode="*" horiz-adv-x="787" 
d="M380 1294q-4 71 -37 130q-37 66 -37 84q0 32 23.5 51.5t62.5 19.5q37 0 61.5 -18t24.5 -47q0 -21 -36 -89q-33 -61 -37 -130q66 25 113 75q51 55 69 61q11 3 21 3q18 0 35 -10q26 -17 38 -53q6 -19 6 -36q0 -15 -4 -28q-10 -30 -38 -38q-6 -2 -19 -2q-25 0 -76 9
q-28 5 -55 5q-41 0 -81 -11q44 -55 105 -83q68 -32 79 -47q13 -18 13 -38q0 -9 -2 -17q-8 -30 -39 -53q-29 -22 -59 -22q-1 0 -1 1q-31 0 -48 23q-12 17 -22 94q-10 67 -47 125q-38 -58 -46 -124q-9 -75 -20 -90q-19 -25 -49 -27h-5q-28 0 -57 21q-30 21 -39 51q-4 10 -4 20
q0 17 11 32q13 17 83 51q61 29 105 82q-41 11 -80 11q-27 0 -53 -5q-54 -11 -78 -11q-9 0 -14 2q-30 9 -41 38q-6 13 -6 29q0 17 6 36q11 35 36 53q17 12 34 12q9 0 18 -3q20 -6 74 -62q47 -49 112 -75z" />
    <glyph glyph-name="plus" unicode="+" horiz-adv-x="1040" 
d="M450 647h-350v140h350v369l1 1h139v-370h349l1 -1v-139h-350v-370h-140v370z" />
    <glyph glyph-name="comma" unicode="," horiz-adv-x="549" 
d="M449 127q-1 93 -58 136q-48 35 -107 27t-95 -56v-1l-1 -1q-38 -49 -25 -114q9 -43 39 -74q30 -29 68 -34q47 -12 91 7q21 -125 -261 -218l3 -15q298 54 332 234q14 78 14 109z" />
    <glyph glyph-name="hyphen" unicode="-" horiz-adv-x="638" 
d="M140 409q-40 0 -40 28v83q0 29 41 29h356q41 0 41 -29v-83q0 -28 -40 -28h-358z" />
    <glyph glyph-name="hyphen" unicode="&#xad;" horiz-adv-x="638" 
d="M140 409q-40 0 -40 28v83q0 29 41 29h356q41 0 41 -29v-83q0 -28 -40 -28h-358z" />
    <glyph glyph-name="period" unicode="." horiz-adv-x="499" 
d="M355 41q-44 -41 -106 -41q-61 0 -105 41q-44 42 -44 101t44 101q44 41 105 41q62 0 106 -41q44 -42 44 -101t-44 -101z" />
    <glyph glyph-name="slash" unicode="/" horiz-adv-x="821" 
d="M180 -50h-80l541 1484h80z" />
    <glyph glyph-name="zero" unicode="0" horiz-adv-x="1315" 
d="M736 1323v1v-1h1h-1zM690 1333q8 -1 13 -2q-5 1 -13 2zM661 1336l20 -2zM714 1329q3 -1 8 -2q-5 1 -8 2zM311 641h1q-1 15 -1 34q0 13 1 28h-1v6q2 626 347 639q343 -13 346 -639v-6h-1q1 -15 1 -27q0 -20 -1 -35h1v-6q-4 -584 -318 -619q-1 -1 -2 1l-1 1q5 0 -24 0h-1
q-29 0 -25 0q-319 35 -322 617v6zM641 -33q119 6 225 60q107 54 171 142q158 215 175 467v5h3v5q0 14 -1 35q0 7 1 22h-2l-1 5q-18 282 -175 496q-62 85 -158 145q-116 73 -238 79h-6h-6q-105 -6 -215 -77q-96 -62 -159 -147q-133 -181 -152 -496l-1 -5h-2q0 -10 1 -18
q-1 -21 -1 -44h3v-5q18 -285 152 -467q63 -85 166 -140q103 -56 208 -62h6h6zM614 1331q6 1 13 2q-8 -1 -13 -2zM597 1328q3 0 5 1q-2 -1 -5 -1zM658 1336q-11 -1 -23 -2q12 1 23 2v0z" />
    <glyph glyph-name="one" unicode="1" horiz-adv-x="699" 
d="M276 1451l-176 -193v-27l175 150v-1311l-113 -25v-42h437v42l-125 25v1381h-198z" />
    <glyph glyph-name="two" unicode="2" horiz-adv-x="1220" 
d="M748 1270q-107 96 -231 96q-211 0 -341 -130h-28v49q49 49 143 103q94 53 230 53q227 0 380 -120q153 -119 153 -293q0 -127 -194 -344q-184 -206 -584 -538h524q182 0 259 87h61l-128 -230h-892l1 50q352 311 565 601q189 256 189 374q0 146 -107 242z" />
    <glyph glyph-name="three" unicode="3" horiz-adv-x="1049" 
d="M583 831q163 59 238 138q76 78 76 164q0 164 -126 247t-317 83q-101 0 -192 -13q-91 -14 -91 -34v-155h53q0 64 68 109q67 44 152 44q137 -13 205 -92t68 -188q0 -131 -80 -207q-82 -79 -180 -120v-19q166 -47 220 -147q56 -102 56 -203q0 -163 -82 -278
q-83 -115 -269 -115q-163 0 -269 49q-11 5 -13 5v-70q108 -28 269 -28q224 0 402 130t178 291q0 157 -125 276q-126 119 -241 133z" />
    <glyph glyph-name="four" unicode="4" horiz-adv-x="1270" 
d="M1094 1436l-264 -3l-730 -1057v-39h724v-260l-110 -25v-46h429v46l-122 25v260h100l49 111h-149v930l73 25v33zM824 1323v-875h-578z" />
    <glyph glyph-name="five" unicode="5" horiz-adv-x="1312" 
d="M425 904l128 388h604l55 144h-740l-178 -578q68 6 106 6q217 0 352 -106q135 -105 135 -264q0 -230 -82 -346t-268 -116q-164 0 -268 46q-106 48 -106 134h-63v-103q0 -44 117 -82q118 -39 307 -39q224 0 401 131q178 131 178 364q0 175 -200 299q-196 122 -478 122z" />
    <glyph glyph-name="six" unicode="6" horiz-adv-x="1219" 
d="M863 126q74 95 74 240q0 197 -119 324q-118 126 -256 126q-108 0 -193 -98q-85 -99 -85 -243q0 -149 113 -297t273 -148q120 0 193 96zM958 1389q-210 -11 -387 -174t-277 -454q99 78 136 100q93 55 180 55q324 -3 446 -220q63 -113 63 -273q0 -112 -67 -214
q-67 -101 -170 -158q-104 -56 -201 -56q-288 0 -435 158q-146 158 -146 361q0 311 248 617q247 305 610 305v-47z" />
    <glyph glyph-name="seven" unicode="7" horiz-adv-x="1349" 
d="M271 1432q-33 -1 -44 -1h-7l-6 5v-4h-111v-336l19 -8q5 -2 7 2q2 15 52 108q56 104 84 124q68 53 158 56q167 0 562 1h12l-6 -9l-891 -1371l203 -4l893 1385l53 26v26h-978z" />
    <glyph glyph-name="eight" unicode="8" horiz-adv-x="1261" 
d="M879 956q33 74 33 138q0 20 -4 39q-14 80 -64 153q-50 72 -123 109q-68 32 -131 32h-11q-70 -3 -130 -45q-60 -43 -85 -118q-16 -49 -16 -99q0 -28 5 -57q15 -79 64 -150q48 -72 269 -125q150 24 193 123zM364 632q-69 -114 -69 -204q0 -18 2 -35q18 -103 76 -194
q59 -92 147 -140q79 -43 158 -43h16q86 4 157 59q71 56 101 152q18 61 18 126q0 35 -6 72q-14 111 -91 211q-77 99 -285 152q-141 -21 -224 -156zM891 779q127 -55 199 -157q71 -102 71 -213t-69 -211q-70 -101 -197 -157q-126 -56 -264 -56t-265 56t-196 157
q-70 100 -70 211t71 213t198 157q51 21 101 35q-29 9 -59 21q-106 43 -164 122q-58 78 -58 164t59 166q59 79 165 122q105 42 218 42q111 0 217 -42q106 -43 165 -122q60 -80 60 -166t-58 -164q-58 -79 -163 -122q-31 -13 -62 -21q52 -14 101 -35z" />
    <glyph glyph-name="nine" unicode="9" horiz-adv-x="1219" 
d="M356 1305q-73 -95 -73 -240q0 -197 118 -324q119 -126 256 -126q108 0 193 98q86 99 86 243q0 149 -114 297q-113 148 -273 148q-119 0 -193 -96zM261 42q210 11 387 174t277 454q-98 -78 -136 -100q-92 -55 -179 -55q-324 3 -446 220q-64 113 -64 273q0 112 67 214
q67 101 171 158q103 56 201 56q288 0 434 -158t146 -361q0 -311 -247 -617q-248 -305 -611 -305v47z" />
    <glyph glyph-name="colon" unicode=":" horiz-adv-x="499" 
d="M355 666q-44 -41 -106 -41q-61 0 -105 41q-44 42 -44 101t44 101q44 41 105 41q62 0 106 -41q44 -42 44 -101t-44 -101zM355 42q-44 -42 -106 -42q-61 0 -105 42q-44 41 -44 100t44 101t105 42q62 0 106 -42t44 -101t-44 -100z" />
    <glyph glyph-name="semicolon" unicode=";" horiz-adv-x="566" 
d="M449 167q-1 93 -58 136q-48 35 -107 27t-95 -56v-1l-1 -1q-38 -49 -25 -114q9 -43 39 -74q30 -29 68 -34q47 -12 91 7q21 -125 -261 -218l3 -15q298 54 332 234q14 78 14 109zM422 666q-44 -41 -106 -41q-61 0 -105 41q-44 42 -44 101t44 101q44 41 105 41q62 0 106 -41
q44 -42 44 -101t-44 -101z" />
    <glyph glyph-name="semicolon" unicode="&#x37e;" horiz-adv-x="566" 
d="M449 167q-1 93 -58 136q-48 35 -107 27t-95 -56v-1l-1 -1q-38 -49 -25 -114q9 -43 39 -74q30 -29 68 -34q47 -12 91 7q21 -125 -261 -218l3 -15q298 54 332 234q14 78 14 109zM422 666q-44 -41 -106 -41q-61 0 -105 41q-44 42 -44 101t44 101q44 41 105 41q62 0 106 -41
q44 -42 44 -101t-44 -101z" />
    <glyph glyph-name="less" unicode="&#x3c;" horiz-adv-x="1040" 
d="M940 1074l-625 -359l625 -355v-167l-840 481v83l840 484v-167z" />
    <glyph glyph-name="equal" unicode="=" horiz-adv-x="1040" 
d="M100 631h840v-140h-840v140zM100 943h840v-140h-840v140z" />
    <glyph glyph-name="greater" unicode="&#x3e;" horiz-adv-x="1040" 
d="M100 1241l840 -484v-83l-840 -481v167l625 355l-625 359v167z" />
    <glyph glyph-name="question" unicode="?" horiz-adv-x="734" 
d="M100 1330q128 104 242 104q132 0 212 -68t80 -182q0 -69 -32.5 -140t-124.5 -186q-90 -113 -141.5 -187.5t-51.5 -142.5q0 -63 35 -189h-47q-50 138 -50 211q0 109 116.5 312t116.5 309q0 82 -47 129t-130 47q-84 0 -178 -81v64zM191 167l82 84q15 14 29 14q13 0 31 -16
l80 -86q12 -16 12 -29q0 -15 -14 -31l-80 -88q-20 -20 -29 -20q-16 0 -29 14l-88 101q-10 13 -10 26q0 15 16 31z" />
    <glyph glyph-name="at" unicode="@" horiz-adv-x="1982" 
d="M972 622q-83 -10 -151 -80t-68 -199q0 -107 64 -194t183 -87q97 5 126 167v476q-54 -63 -154 -83zM1360 29q-63 1 -100.5 18t-61.5 54q-29 -37 -82 -64.5t-133 -27.5q-144 0 -256.5 100.5t-112.5 233.5q1 87 53 166.5t132.5 115t173.5 49.5q67 16 110 42.5t43 74.5
q-2 69 -41 125t-129 56q-72 0 -121.5 -59t-50.5 -125h-45v159q0 20 72 40q73 20 178 20q109 -2 193.5 -64.5t84.5 -157.5v-589q0 -117 94 -117q185 35 267 191.5t82 382.5q-20 335 -232 540q-197 188 -480 188q-205 0 -392.5 -137.5t-269.5 -355.5q-67 -178 -67 -361
q0 -313 129.5 -511.5t305 -290.5t318.5 -92q274 0 575 208v-75q-263 -184 -571 -184q-240 0 -461 122.5t-343 342t-122 461.5t124 464.5t345.5 342t456.5 119.5q362 0 609 -230t247 -566q0 -270 -176 -439q-175 -168 -346 -170z" />
    <glyph glyph-name="A" unicode="A" horiz-adv-x="940" 
d="M466 1443l-394 -1445l52 2l104 389h415l104 -389h165l-392 1443h-54zM434 1140l195 -701h-388z" />
    <glyph glyph-name="B" unicode="B" horiz-adv-x="957" 
d="M268 84v652q203 -1 227 -1q157 0 212 -101q35 -66 35 -208q0 -176 -101 -269q-75 -70 -164 -70q-14 0 -209 -3zM268 1402q166 -2 178 -2q77 0 143 -61q87 -82 87 -237q0 -136 -31 -194q-24 -47 -72 -75t-105 -28q-3 0 -64 -8q-61 -7 -90 -7h-46v612zM100 -5h328
q109 14 146 18q116 12 215 108q56 53 93 129q41 85 41 168q0 132 -64 226q-58 85 -157 125q70 44 98 92q50 88 50 270q0 168 -132 246q-65 38 -195 60q-45 7 -143 -1h-280v-1441z" />
    <glyph glyph-name="C" unicode="C" horiz-adv-x="1058" 
d="M101 649q16 -266 152 -464q66 -97 166 -152t212 -55q116 0 201 77q73 66 170 237q-16 75 -26 112q-30 -117 -101 -219q-106 -152 -247 -152q-332 0 -336 615v7q1 21 1 34q0 10 -1 29v6q2 316 88 479q84 164 247 164q101 0 169 -51q67 -52 112 -135l2 -5q62 -116 71 -177
q1 -11 7 -11h3v333l-170 75l-61 22h5q-69 23 -136 23q-134 0 -253 -92q-73 -56 -124 -132q-134 -196 -152 -493v-6v-63z" />
    <glyph glyph-name="D" unicode="D" horiz-adv-x="1081" 
d="M262 67v1325h5h211q189 0 274 -207q66 -157 67 -421q4 -97 5 -109v0v-7q-3 -290 -92 -441q-88 -151 -254 -151q-10 0 -211 11h-5zM100 -7h398q215 0 367 218q135 195 152 471q3 30 2 49v15q0 8 -2 30q-14 240 -153 466q-72 116 -241 163q-86 24 -163 24h-360v-60h2v-1321
h-2v-55z" />
    <glyph glyph-name="E" unicode="E" horiz-adv-x="799" 
d="M743 63h-498v810l498 -1v50h-498v458h498v50h-643v-1430h643v63z" />
    <glyph glyph-name="F" unicode="F" horiz-adv-x="816" 
d="M245 0v873l498 -1v50h-498v458h498v50h-643v-1430h145z" />
    <glyph glyph-name="G" unicode="G" horiz-adv-x="1193" 
d="M705 -9q20 5 43 12q38 11 55 15q151 110 262 17v612l32 51h-482v-51h274v-420q-12 -19 -25 -37q-41 -58 -88 -94q-36 -24 -71 -39v-2q-46 -17 -94 -17q-340 0 -344 615v7q1 21 1 34q0 10 -1 29v6q2 316 89 479q87 164 254 164q103 0 173 -51q68 -52 114 -135l3 -5
q63 -116 73 -177q1 -11 6 -11h4v333l-174 75l-63 22h5q-70 23 -139 23q-138 0 -259 -92q-75 -56 -127 -132q-138 -196 -156 -493v-69l1 -6q17 -266 156 -464q67 -97 170 -152q102 -55 216 -55q48 0 92 13v-5z" />
    <glyph glyph-name="H" unicode="H" horiz-adv-x="1025" 
d="M959 -1v1435h-170v-520h-518v520h-171v-1435h171v855h518v-855h170z" />
    <glyph glyph-name="I" unicode="I" horiz-adv-x="306" 
d="M214 0v1434h-134v-1434h134z" />
    <glyph glyph-name="J" unicode="J" horiz-adv-x="551" 
d="M80 -322q20 -3 42 -3q28 0 46 4q60 15 98 43q130 96 157 276v5q1 1 0 9q-1 10 -1 15v1409h-255v-25l103 -29l3 -1369q-2 -133 -49 -230q-37 -76 -68 -82q-13 -5 -31 -5q-25 0 -45 10v-28z" />
    <glyph glyph-name="K" unicode="K" horiz-adv-x="965" 
d="M887 0l-561 927l478 507h-61l-482 -503v503h-161v-1434h161v793l464 -793h162z" />
    <glyph glyph-name="L" unicode="L" horiz-adv-x="833" 
d="M100 1h697v54l-538 -2v1381h-158v-1378h-1v-55z" />
    <glyph glyph-name="M" unicode="M" horiz-adv-x="1301" 
d="M1217 0v1441h-205l-324 -1111l-316 1111h-272v-1441h54v1363l411 -1355l3 -8h91l394 1345v-1345h164z" />
    <glyph glyph-name="N" unicode="N" horiz-adv-x="1092" 
d="M154 -1v1382l774 -1381h82v1436h-57v-1031l-569 1029h-284v-1435h54z" />
    <glyph glyph-name="O" unicode="O" horiz-adv-x="1282" 
d="M698 1362q3 -1 10 -2q-6 1 -10 2zM673 1366q8 -1 14 -2q-6 1 -14 2zM642 1369q11 -1 23 -2q-12 1 -23 2zM720 1357q-3 0 5 -2q-8 2 -5 2zM286 665h2q-1 15 -1 34q0 13 1 28h-2l1 6q3 635 354 648q350 -13 354 -648v-6h-2q1 -14 1 -27q0 -20 -1 -35h2v-6
q-4 -570 -303 -625v0q-10 -2 -21 -3q-1 0 -2 1l-2 1q4 0 -26 0v0q-30 0 -26 0q-182 20 -264 222q-63 154 -64 404zM629 -20q120 5 229 60q108 56 175 145q158 214 175 474v6h-3v3q0 6 1 18t1 19q0 4 2 11q2 8 2 11h-2l-1 6q-18 288 -175 501q-66 88 -164 148
q-115 72 -240 78h-5h-5q-116 -6 -228 -78q-93 -60 -159 -148q-139 -189 -159 -501l-1 -6h-2q1 -13 1 -19q-1 -21 -1 -43h3v-6q19 -284 159 -474q67 -89 170 -145q104 -55 217 -60l5 -1zM641 1371q-7 0 -23 -1q17 1 23 1v0zM596 1364l14 2q-8 -1 -14 -2zM578 1360q4 1 6 2z
" />
    <glyph glyph-name="P" unicode="P" horiz-adv-x="1002" 
d="M245 681v708h164q-8 -1 65 -1q104 0 180 -68q100 -91 100 -275q0 -139 -40 -214q-31 -59 -92 -102q-67 -47 -136 -47q-26 0 -235 -1h-6zM80 0h165v603h189q22 -1 144 13q156 18 249 135q93 118 93 300q0 86 -45 178q-39 81 -96 136q-64 63 -223 75h-77l-73 1h-326v-1441z
" />
    <glyph glyph-name="Q" unicode="Q" horiz-adv-x="1301" 
d="M674 1363q-11 2 -22 2q10 0 22 -2zM739 1351q-8 2 -10 2q1 0 10 -2zM683 1362q8 -1 15 -2q-7 1 -15 2zM707 1359q5 -1 12 -3q-7 2 -12 3zM626 1363q17 2 25 2q-8 0 -25 -2zM854 142l-9 10q-39 48 -56 63q-26 23 -56 33q-65 22 -158 -20q-52 -24 -108 -72q1 -5 2 -8v-2
l1 -24l-9 9q-167 143 -168 538v6h1q-1 15 -1 35q0 13 1 28h-1v6q2 621 358 634q353 -13 356 -634v-6h-1q0 -15 1 -28q-1 -20 -1 -35h1v-6q-3 -376 -150 -523zM718 75q-33 -8 -67 -9q-95 3 -165 52l-7 5l7 5q25 17 46 25q56 22 102 7q37 -13 87 -75l6 -8zM1112 -4
q-61 -25 -109 -9q-23 7 -38 21q-24 21 -60 72l-5 6l7 3q95 57 144 121q153 200 171 460l1 5h2v3v42v18h-2l-1 6q-19 284 -177 491q-67 87 -165 147q-116 70 -241 76h-6h-6q-117 -6 -229 -76q-93 -60 -161 -147q-140 -183 -160 -491v-6h-3q1 -2 0 -7q-1 -6 -1 -9q0 -6 -2 -24
q-1 -15 -1 -21v-2h7v-5q19 -276 160 -460q66 -86 171 -139q104 -53 219 -59h6h3h3q59 2 115 16l3 1l2 -3q47 -61 78 -90q26 -23 62 -35q68 -23 164 21q64 29 128 89q-11 7 -25 16q-27 -19 -54 -31zM585 1357q6 1 9 1q-4 0 -9 -1zM605 1360q6 1 14 2q-8 -1 -14 -2z" />
    <glyph glyph-name="R" unicode="R" horiz-adv-x="1008" 
d="M261 681v708h160q-8 -1 63 -1q101 0 176 -68q97 -91 97 -275q0 -139 -39 -214q-30 -59 -89 -102q-66 -47 -133 -47q-25 0 -230 -1h-5zM829 751q90 118 90 300q0 86 -44 178q-38 81 -93 136q-63 63 -218 75h-75l-71 1h-318v-1441h161v603h184q6 0 19 1l328 -605h182
l-353 623q127 26 208 129z" />
    <glyph glyph-name="S" unicode="S" horiz-adv-x="946" 
d="M125 142q3 1 8 1q7 0 14 -2q136 -81 195 -107q104 -44 151 -52q9 -2 28 -2q177 5 280 144q89 122 89 293q0 161 -83 263q-66 83 -294 158l-10 3q-150 48 -218 120q-18 18 -30 40l-2 3q-6 12 -11 24q-5 14 -9 28q-3 11 -7 22q-4 29 -3 60q3 138 56 196q63 93 204 85
q134 -8 344 -158v94q-12 6 -31 15q-179 71 -243.5 77t-68.5 6h-4q-221 0 -322 -178q-32 -56 -37 -120q-19 -257 69 -347q88 -88 277 -157q141 -52 209 -116q90 -88 87 -226q-3 -139 -62 -216q-60 -77 -164 -77q-77 0 -157 41q-80 40 -234 171q-12 14 -21 28v-114z" />
    <glyph glyph-name="T" unicode="T" horiz-adv-x="1087" 
d="M631 1383v-1383h-165v1383h-366v48h897v-48h-366z" />
    <glyph glyph-name="U" unicode="U" horiz-adv-x="1025" 
d="M100 364q4 -69 9 -88q40 -179 201 -251q82 -40 228 -40q203 0 310 113q92 89 92 260v1076h-55v-1047q0 -150 -68 -233q-92 -107 -252 -107q-163 0 -261.5 106t-48.5 1281h-155v-1070z" />
    <glyph glyph-name="V" unicode="V" horiz-adv-x="959" 
d="M80 1434l373 -1434h54l372 1434h-43l-298 -1163l-299 1163h-159z" />
    <glyph glyph-name="W" unicode="W" horiz-adv-x="1762" 
d="M80 1436l383 -1436h56l359 1353l360 -1353h55l383 1436h-44l-306 -1165l-307 1165h-165l-302 -1159l-308 1159h-164z" />
    <glyph glyph-name="X" unicode="X" horiz-adv-x="755" 
d="M683 -4l-273 797l250 636h-44l-233 -585l-176 585h-155l244 -749l-256 -684h42l238 637l89 -245l119 -392h155z" />
    <glyph glyph-name="Y" unicode="Y" horiz-adv-x="941" 
d="M615 -2v695l266 743h-41l-267 -729l-306 729h-167l346 -789v-649h169z" />
    <glyph glyph-name="Z" unicode="Z" horiz-adv-x="995" 
d="M935 64q-8 -2 -15 -2q-158 -1 -607 -2h-10l5 10l617 1359h-803v-45l22 2h587l-631 -1386h835v64z" />
    <glyph glyph-name="bracketleft" unicode="[" horiz-adv-x="640" 
d="M540 -406h-440v1793h440v-79h-290v-1636h290v-78z" />
    <glyph glyph-name="backslash" unicode="\" horiz-adv-x="770" 
d="M180 1422l490 -1450h-80l-490 1450h80z" />
    <glyph glyph-name="bracketright" unicode="]" horiz-adv-x="640" 
d="M100 1387h440v-1794h-440v79h290v1636h-290v79z" />
    <glyph glyph-name="asciicircum" unicode="^" horiz-adv-x="1086" 
d="M561 1384l425 -717h-92l-350 586l-350 -586h-94l431 717h30z" />
    <glyph glyph-name="underscore" unicode="_" horiz-adv-x="1259" 
d="M1159 -442h-1059v84h1059v-84z" />
    <glyph glyph-name="grave" unicode="`" horiz-adv-x="529" 
d="M100 1390h223l106 -345h-35z" />
    <glyph glyph-name="a" unicode="a" horiz-adv-x="940" 
d="M466 1443l-394 -1445l52 2l104 389h415l104 -389h165l-392 1443h-54zM434 1140l195 -701h-388z" />
    <glyph glyph-name="b" unicode="b" horiz-adv-x="957" 
d="M268 84v652q203 -1 227 -1q157 0 212 -101q35 -66 35 -208q0 -176 -101 -269q-75 -70 -164 -70q-14 0 -209 -3zM268 1402q166 -2 178 -2q77 0 143 -61q87 -82 87 -237q0 -136 -31 -194q-24 -47 -72 -75t-105 -28q-3 0 -64 -8q-61 -7 -90 -7h-46v612zM100 -5h328
q109 14 146 18q116 12 215 108q56 53 93 129q41 85 41 168q0 132 -64 226q-58 85 -157 125q70 44 98 92q50 88 50 270q0 168 -132 246q-65 38 -195 60q-45 7 -143 -1h-280v-1441z" />
    <glyph glyph-name="c" unicode="c" horiz-adv-x="1058" 
d="M101 649q16 -266 152 -464q66 -97 166 -152t212 -55q116 0 201 77q73 66 170 237q-16 75 -26 112q-30 -117 -101 -219q-106 -152 -247 -152q-332 0 -336 615v7q1 21 1 34q0 10 -1 29v6q2 316 88 479q84 164 247 164q101 0 169 -51q67 -52 112 -135l2 -5q62 -116 71 -177
q1 -11 7 -11h3v333l-170 75l-61 22h5q-69 23 -136 23q-134 0 -253 -92q-73 -56 -124 -132q-134 -196 -152 -493v-6v-63z" />
    <glyph glyph-name="d" unicode="d" horiz-adv-x="1081" 
d="M262 67v1325h5h211q189 0 274 -207q66 -157 67 -421q4 -97 5 -109v0v-7q-3 -290 -92 -441q-88 -151 -254 -151q-10 0 -211 11h-5zM100 -7h398q215 0 367 218q135 195 152 471q3 30 2 49v15q0 8 -2 30q-14 240 -153 466q-72 116 -241 163q-86 24 -163 24h-360v-60h2v-1321
h-2v-55z" />
    <glyph glyph-name="e" unicode="e" horiz-adv-x="799" 
d="M743 63h-498v810l498 -1v50h-498v458h498v50h-643v-1430h643v63z" />
    <glyph glyph-name="f" unicode="f" horiz-adv-x="816" 
d="M245 0v873l498 -1v50h-498v458h498v50h-643v-1430h145z" />
    <glyph glyph-name="g" unicode="g" horiz-adv-x="1193" 
d="M705 -9q20 5 43 12q38 11 55 15q151 110 262 17v612l32 51h-482v-51h274v-420q-12 -19 -25 -37q-41 -58 -88 -94q-36 -24 -71 -39v-2q-46 -17 -94 -17q-340 0 -344 615v7q1 21 1 34q0 10 -1 29v6q2 316 89 479q87 164 254 164q103 0 173 -51q68 -52 114 -135l3 -5
q63 -116 73 -177q1 -11 6 -11h4v333l-174 75l-63 22h5q-70 23 -139 23q-138 0 -259 -92q-75 -56 -127 -132q-138 -196 -156 -493v-69l1 -6q17 -266 156 -464q67 -97 170 -152q102 -55 216 -55q48 0 92 13v-5z" />
    <glyph glyph-name="h" unicode="h" horiz-adv-x="1025" 
d="M959 -1v1435h-170v-520h-518v520h-171v-1435h171v855h518v-855h170z" />
    <glyph glyph-name="i" unicode="i" horiz-adv-x="306" 
d="M214 0v1434h-134v-1434h134z" />
    <glyph glyph-name="j" unicode="j" horiz-adv-x="551" 
d="M80 -322q20 -3 42 -3q28 0 46 4q60 15 98 43q130 96 157 276v5q1 1 0 9q-1 10 -1 15v1409h-255v-25l103 -29l3 -1369q-2 -133 -49 -230q-37 -76 -68 -82q-13 -5 -31 -5q-25 0 -45 10v-28z" />
    <glyph glyph-name="k" unicode="k" horiz-adv-x="965" 
d="M887 0l-561 927l478 507h-61l-482 -503v503h-161v-1434h161v793l464 -793h162z" />
    <glyph glyph-name="l" unicode="l" horiz-adv-x="833" 
d="M100 1h697v54l-538 -2v1381h-158v-1378h-1v-55z" />
    <glyph glyph-name="m" unicode="m" horiz-adv-x="1301" 
d="M1217 0v1441h-205l-324 -1111l-316 1111h-272v-1441h54v1363l411 -1355l3 -8h91l394 1345v-1345h164z" />
    <glyph glyph-name="n" unicode="n" horiz-adv-x="1092" 
d="M154 -1v1382l774 -1381h82v1436h-57v-1031l-569 1029h-284v-1435h54z" />
    <glyph glyph-name="o" unicode="o" horiz-adv-x="1282" 
d="M698 1362q3 -1 10 -2q-6 1 -10 2zM673 1366q8 -1 14 -2q-6 1 -14 2zM642 1369q11 -1 23 -2q-12 1 -23 2zM720 1357q-3 0 5 -2q-8 2 -5 2zM286 665h2q-1 15 -1 34q0 13 1 28h-2l1 6q3 635 354 648q350 -13 354 -648v-6h-2q1 -14 1 -27q0 -20 -1 -35h2v-6
q-4 -570 -303 -625v0q-10 -2 -21 -3q-1 0 -2 1l-2 1q4 0 -26 0v0q-30 0 -26 0q-182 20 -264 222q-63 154 -64 404zM629 -20q120 5 229 60q108 56 175 145q158 214 175 474v6h-3v3q0 6 1 18t1 19q0 4 2 11q2 8 2 11h-2l-1 6q-18 288 -175 501q-66 88 -164 148
q-115 72 -240 78h-5h-5q-116 -6 -228 -78q-93 -60 -159 -148q-139 -189 -159 -501l-1 -6h-2q1 -13 1 -19q-1 -21 -1 -43h3v-6q19 -284 159 -474q67 -89 170 -145q104 -55 217 -60l5 -1zM641 1371q-7 0 -23 -1q17 1 23 1v0zM596 1364l14 2q-8 -1 -14 -2zM578 1360q4 1 6 2z
" />
    <glyph glyph-name="p" unicode="p" horiz-adv-x="1002" 
d="M245 681v708h164q-8 -1 65 -1q104 0 180 -68q100 -91 100 -275q0 -139 -40 -214q-31 -59 -92 -102q-67 -47 -136 -47q-26 0 -235 -1h-6zM80 0h165v603h189q22 -1 144 13q156 18 249 135q93 118 93 300q0 86 -45 178q-39 81 -96 136q-64 63 -223 75h-77l-73 1h-326v-1441z
" />
    <glyph glyph-name="q" unicode="q" horiz-adv-x="1301" 
d="M674 1363q-11 2 -22 2q10 0 22 -2zM739 1351q-8 2 -10 2q1 0 10 -2zM683 1362q8 -1 15 -2q-7 1 -15 2zM707 1359q5 -1 12 -3q-7 2 -12 3zM626 1363q17 2 25 2q-8 0 -25 -2zM854 142l-9 10q-39 48 -56 63q-26 23 -56 33q-65 22 -158 -20q-52 -24 -108 -72q1 -5 2 -8v-2
l1 -24l-9 9q-167 143 -168 538v6h1q-1 15 -1 35q0 13 1 28h-1v6q2 621 358 634q353 -13 356 -634v-6h-1q0 -15 1 -28q-1 -20 -1 -35h1v-6q-3 -376 -150 -523zM718 75q-33 -8 -67 -9q-95 3 -165 52l-7 5l7 5q25 17 46 25q56 22 102 7q37 -13 87 -75l6 -8zM1112 -4
q-61 -25 -109 -9q-23 7 -38 21q-24 21 -60 72l-5 6l7 3q95 57 144 121q153 200 171 460l1 5h2v3v42v18h-2l-1 6q-19 284 -177 491q-67 87 -165 147q-116 70 -241 76h-6h-6q-117 -6 -229 -76q-93 -60 -161 -147q-140 -183 -160 -491v-6h-3q1 -2 0 -7q-1 -6 -1 -9q0 -6 -2 -24
q-1 -15 -1 -21v-2h7v-5q19 -276 160 -460q66 -86 171 -139q104 -53 219 -59h6h3h3q59 2 115 16l3 1l2 -3q47 -61 78 -90q26 -23 62 -35q68 -23 164 21q64 29 128 89q-11 7 -25 16q-27 -19 -54 -31zM585 1357q6 1 9 1q-4 0 -9 -1zM605 1360q6 1 14 2q-8 -1 -14 -2z" />
    <glyph glyph-name="r" unicode="r" horiz-adv-x="1008" 
d="M261 681v708h160q-8 -1 63 -1q101 0 176 -68q97 -91 97 -275q0 -139 -39 -214q-30 -59 -89 -102q-66 -47 -133 -47q-25 0 -230 -1h-5zM829 751q90 118 90 300q0 86 -44 178q-38 81 -93 136q-63 63 -218 75h-75l-71 1h-318v-1441h161v603h184q6 0 19 1l328 -605h182
l-353 623q127 26 208 129z" />
    <glyph glyph-name="s" unicode="s" horiz-adv-x="946" 
d="M125 142q3 1 8 1q7 0 14 -2q136 -81 195 -107q104 -44 151 -52q9 -2 28 -2q177 5 280 144q89 122 89 293q0 161 -83 263q-66 83 -294 158l-10 3q-150 48 -218 120q-18 18 -30 40l-2 3q-6 12 -11 24q-5 14 -9 28q-3 11 -7 22q-4 29 -3 60q3 138 56 196q63 93 204 85
q134 -8 344 -158v94q-12 6 -31 15q-179 71 -243.5 77t-68.5 6h-4q-221 0 -322 -178q-32 -56 -37 -120q-19 -257 69 -347q88 -88 277 -157q141 -52 209 -116q90 -88 87 -226q-3 -139 -62 -216q-60 -77 -164 -77q-77 0 -157 41q-80 40 -234 171q-12 14 -21 28v-114z" />
    <glyph glyph-name="t" unicode="t" horiz-adv-x="1087" 
d="M631 1383v-1383h-165v1383h-366v48h897v-48h-366z" />
    <glyph glyph-name="u" unicode="u" horiz-adv-x="1025" 
d="M100 364q4 -69 9 -88q40 -179 201 -251q82 -40 228 -40q203 0 310 113q92 89 92 260v1076h-55v-1047q0 -150 -68 -233q-92 -107 -252 -107q-163 0 -261.5 106t-48.5 1281h-155v-1070z" />
    <glyph glyph-name="v" unicode="v" horiz-adv-x="959" 
d="M80 1434l373 -1434h54l372 1434h-43l-298 -1163l-299 1163h-159z" />
    <glyph glyph-name="w" unicode="w" horiz-adv-x="1762" 
d="M80 1436l383 -1436h56l359 1353l360 -1353h55l383 1436h-44l-306 -1165l-307 1165h-165l-302 -1159l-308 1159h-164z" />
    <glyph glyph-name="x" unicode="x" horiz-adv-x="755" 
d="M683 -4l-273 797l250 636h-44l-233 -585l-176 585h-155l244 -749l-256 -684h42l238 637l89 -245l119 -392h155z" />
    <glyph glyph-name="y" unicode="y" horiz-adv-x="941" 
d="M615 -2v695l266 743h-41l-267 -729l-306 729h-167l346 -789v-649h169z" />
    <glyph glyph-name="z" unicode="z" horiz-adv-x="995" 
d="M935 64q-8 -2 -15 -2q-158 -1 -607 -2h-10l5 10l617 1359h-803v-45l22 2h587l-631 -1386h835v64z" />
    <glyph glyph-name="braceleft" unicode="{" horiz-adv-x="844" 
d="M100 698q172 5 223 71t51 133v468q0 74 77 141.5t185 67.5h108v-50h-90q-61 0 -107 -33.5t-47 -91.5v-500q0 -83 -60.5 -158.5t-142.5 -76.5v-2q82 -1 143 -76t61 -158l-1 -500q1 -58 47 -91.5t107 -33.5h90v-50h-108q-108 0 -184.5 67.5t-77.5 141.5v468q0 66 -51 132
t-223 71v60z" />
    <glyph glyph-name="bar" unicode="|" horiz-adv-x="360" 
d="M100 1577h160v-1995h-160v1995z" />
    <glyph glyph-name="braceright" unicode="}" horiz-adv-x="844" 
d="M744 638q-172 -5 -223 -71t-51 -132v-468q-1 -74 -77.5 -141.5t-184.5 -67.5h-108v50h90q61 0 107 33.5t47 91.5l-1 500q0 83 61 158t144 76v2q-83 1 -143.5 76.5t-60.5 158.5v500q-1 58 -47 91.5t-107 33.5h-90v50h108q108 0 185 -67.5t77 -141.5v-468q0 -67 51 -133
t223 -71v-60z" />
    <glyph glyph-name="glyph97" horiz-adv-x="1029" 
d="M929 878v-156q-63 -72 -122 -97.5t-116 -25.5q-60 0 -177.5 48.5t-176.5 48.5q-51 0 -107.5 -28t-129.5 -112v156q64 73 123 99t114 26q64 0 181.5 -49.5t172.5 -49.5q52 0 108.5 28t129.5 112z" />
    <glyph glyph-name="asciitilde" unicode="~" horiz-adv-x="1029" 
d="M929 878v-156q-63 -72 -122 -97.5t-116 -25.5q-60 0 -177.5 48.5t-176.5 48.5q-51 0 -107.5 -28t-129.5 -112v156q64 73 123 99t114 26q64 0 181.5 -49.5t172.5 -49.5q52 0 108.5 28t129.5 112z" />
    <glyph glyph-name="exclamdown" unicode="&#xa1;" 
 />
    <glyph glyph-name="cent" unicode="&#xa2;" 
 />
    <glyph glyph-name="sterling" unicode="&#xa3;" horiz-adv-x="1060" 
d="M772 1347q-72 31 -160 31h-2q-100 0 -190 -101q-84 -93 -84 -241q0 -15 1 -30q0 -135 53 -273h360v-60h-334q14 -30 31 -60q35 -63 35 -138q0 -161 -162 -375h402q130 0 189 132l49 -1l-103 -231h-719l1 50q187 238 187 418q0 77 -34 143q-17 32 -31 62h-161v60h135
q-58 143 -58 253q0 226 123.5 347t306.5 121h4q75 0 185.5 -14t110.5 -34v-161h-58q-5 61 -77 102z" />
    <glyph glyph-name="currency" unicode="&#xa4;" horiz-adv-x="969" 
d="M328 560q41 -40 99 -57q29 -8 58 -8t58 8q58 17 99 57q40 41 57 99q9 29 9 58t-9 58q-17 58 -57 99q-41 40 -100 57q-29 8 -58 8t-58 -9q-58 -17 -98 -56q-39 -40 -56 -98q-10 -30 -10 -60q0 -28 9 -56q16 -59 57 -100zM218 903l-118 118l80 81l118 -118q44 30 99 46
q44 14 89 14q41 0 83 -12q57 -17 102 -48l118 118l80 -81l-117 -117q31 -46 48 -102q12 -42 12 -85q0 -42 -12 -85q-17 -56 -48 -102l117 -117l-80 -81l-118 118q-45 -32 -101 -48q-42 -12 -85 -12q-42 0 -85 12q-57 16 -102 48l-118 -118l-80 81l118 117q-32 46 -48 103
q-12 42 -12 84q0 44 13 87q16 55 47 99z" />
    <glyph glyph-name="yen" unicode="&#xa5;" horiz-adv-x="1466" 
d="M639 225l-2 242q0 19 -1.5 35t-4.5 32l-484 1q-14 0 -21 6.5t-7 19.5t6.5 19t21.5 6h467l-121 172h-344q-17 0 -23.5 5.5t-6.5 18.5q0 14 6 19.5t22 5.5h307q-43 57 -108 155q-131 197 -227 197q-7 0 -13 5.5t-6 11.5q0 19 10.5 27.5t32.5 8.5q27 0 123 -8t164 -8h88
q33 0 41 -6.5t8 -26.5q0 -8 -15 -14t-38 -6q-6 0 -18.5 2t-18.5 2q-24 0 -37.5 -9.5t-13.5 -25.5q0 -18 16.5 -52t46.5 -77l158 -221q13 -19 33 -53q41 -70 71 -70q9 0 16.5 5t14.5 15l277 396q8 12 13 26.5t5 24.5q0 18 -10 27t-37 14q-15 2 -41 4q-47 3 -47 25
q0 15 8 22.5t25 7.5q3 0 15 -1q56 -7 108 -7h139q30 0 65 1t37 1q11 0 18.5 -4.5t8.5 -11.5q0 -28 -38 -34q-18 -3 -27 -5q-63 -15 -147 -117q-7 -9 -12 -15l-169 -206h323q15 0 24 -6t9 -17q0 -15 -6 -20.5t-23 -5.5h-366q-46 -57 -96.5 -112.5t-52.5 -59.5h511
q18 0 25.5 -5.5t7.5 -17.5q0 -14 -7 -21t-22 -7h-530q0 -11 -1 -30.5t-1 -29.5l2 -215q0 -114 5.5 -150t20.5 -44q30 -17 107.5 -19t77.5 -31q0 -12 -10 -20t-25 -8q-2 0 -35.5 4t-64.5 4q-91 0 -208.5 -4t-142.5 -4q-31 0 -40 4t-9 16t8 18.5t37 12.5q9 2 25 5q74 16 92 32
q17 13 24 47t7 102z" />
    <glyph glyph-name="brokenbar" unicode="&#xa6;" horiz-adv-x="360" 
d="M100 371h160v-789h-160v789zM100 1578h160v-789h-160v789z" />
    <glyph glyph-name="section" unicode="&#xa7;" horiz-adv-x="874" 
d="M475 321q56 16 97 53q73 65 73 166q0 5 -1 10h-2q-1 14 -4 27q-22 61 -113 127q-59 29 -126 29q-78 0 -125 -44.5t-47 -117.5q0 -123 248 -250zM396 -346q113 6 185 69q72 64 72 165q0 125 -316 276q-123 64 -175.5 137t-52.5 177q0 148 89 237q67 65 170 82l-40 19
q-123 64 -175.5 137t-52.5 177q0 148 89 237q82 79 216 86q8 1 17 1h3q66 0 163 -16.5t97 -41.5v-194h-51q-5 81 -80 132q-70 47 -149 51h-15q-78 0 -125 -44.5t-47 -117.5q0 -132 287 -269q149 -67 204.5 -143.5t55.5 -187.5q0 -171 -101 -282q-47 -39 -99 -64
q108 -56 154 -118q55 -77 55 -187q0 -171 -101 -283q-124 -102 -277 -105v1q-6 -1 -13 -1h-3q-66 0 -163 16.5t-97 41.5v194h51q5 -81 80 -132q68 -45 145 -50z" />
    <glyph glyph-name="dieresis" unicode="&#xa8;" horiz-adv-x="781" 
d="M114 1289l71 72q13 12 25 12q11 0 27 -14l69 -73q10 -14 10 -25q0 -13 -12 -27l-69 -75q-17 -17 -25 -17q-14 0 -25 12l-76 86q-9 12 -9 23q0 13 14 26zM479 1289l71 72q13 12 25 12q11 0 27 -13l69 -74q10 -14 10 -25q0 -13 -12 -26l-69 -76q-17 -17 -25 -17
q-14 0 -25 12l-76 87q-9 11 -9 22q0 13 14 26z" />
    <glyph glyph-name="copyright" unicode="&#xa9;" horiz-adv-x="1674" 
d="M840 1456q145 0 280 -56.5t239 -160.5q102 -101 158.5 -238t56.5 -283q0 -147 -56.5 -282t-162.5 -240q-105 -105 -239 -159.5t-283 -54.5q-146 0 -278 55.5t-238 160.5q-106 104 -161.5 237.5t-55.5 282.5q0 148 55.5 283t159.5 238q102 104 238.5 160.5t286.5 56.5z
M357 1197q-95 -96 -146 -219.5t-51 -259.5q0 -137 51 -259t148 -219q98 -96 219 -147t256 -51q137 0 259.5 50.5t219.5 145.5q97 98 149 221.5t52 258.5q0 134 -52 259.5t-145 219.5q-96 96 -220 147.5t-258 51.5q-137 0 -262 -51.5t-220 -147.5zM865 223q-142 0 -264 68
t-186 185t-64 243t65.5 244t187.5 184.5t254 66.5q38 0 75 -6.5t76 -20.5q5 -1 9 -1q19 0 26 30h42l72 -198h-44q-52 94 -131 124q-72 26 -147 26h-15q-86 -8 -166.5 -71t-121.5 -177q-33 -90 -33 -184q0 -25 2 -50q11 -121 69.5 -224t149.5 -152q72 -40 166 -42
q124 0 194 56t70 126h53v-100q0 -46 -96.5 -86.5t-242.5 -40.5z" />
    <glyph glyph-name="ordfeminine" unicode="&#xaa;" 
 />
    <glyph glyph-name="guillemotleft" unicode="&#xab;" horiz-adv-x="869" 
d="M100 479l342 303h14v-37l-205 -266l205 -266v-37h-14zM413 479l342 303h14v-37l-205 -266l205 -266v-37h-14z" />
    <glyph glyph-name="logicalnot" unicode="&#xac;" horiz-adv-x="1040" 
d="M100 767h840v-491l-1 -1h-98v392h-741v100z" />
    <glyph glyph-name="registered" unicode="&#xae;" horiz-adv-x="1674" 
d="M751 1099v-374l3 -8q23 -56 56 -81q29 -22 56 -22h6q31 4 61.5 38.5t46.5 97.5q13 50 13 103q0 13 -1 27q-4 67 -28 124.5t-56.5 76t-63.5 18.5h-93zM984 576l82 -116q100 -141 150 -141h34v-50h-346v50h45q30 0 30 22q0 29 -69 114l-75 102q-42 0 -84 42v-159
q0 -121 36 -121h53v-50h-316v50h43q37 0 37 121v538q0 121 -37 121h-43v70h356q64 -1 125 -42q60 -41 92.5 -114t32.5 -152q0 -78 -32 -150.5t-114 -134.5zM840 1456q145 0 280 -56.5t239 -160.5q102 -101 158.5 -238t56.5 -283q0 -147 -56.5 -282t-162.5 -240
q-105 -105 -239 -159.5t-283 -54.5q-146 0 -278 55.5t-238 160.5q-106 104 -161.5 237.5t-55.5 282.5q0 148 55.5 283t159.5 238q102 104 238.5 160.5t286.5 56.5zM357 1197q-95 -96 -146 -219.5t-51 -259.5q0 -137 51 -259t148 -219q98 -96 219 -147t256 -51
q137 0 259.5 50.5t219.5 145.5q97 98 149 221.5t52 258.5q0 134 -52 259.5t-145 219.5q-96 96 -220 147.5t-258 51.5q-137 0 -262 -51.5t-220 -147.5z" />
    <glyph glyph-name="macron" unicode="&#xaf;" 
 />
    <glyph glyph-name="degree" unicode="&#xb0;" horiz-adv-x="756" 
d="M379 1372q-86 0 -147.5 -61t-61.5 -148t61 -147t148 -60t147 60t60 147t-60.5 148t-146.5 61zM379 1442q115 0 196 -81.5t81 -196.5q0 -114 -82 -196t-197 -82q-117 0 -197 81t-80 197t81.5 197t197.5 81z" />
    <glyph glyph-name="plusminus" unicode="&#xb1;" 
 />
    <glyph glyph-name="uni00B2" unicode="&#xb2;" 
 />
    <glyph glyph-name="uni00B3" unicode="&#xb3;" 
 />
    <glyph glyph-name="acute" unicode="&#xb4;" horiz-adv-x="661" 
d="M391 1375q35 35 55.5 47t40.5 12q33 0 53.5 -20t20.5 -51q0 -22 -15.5 -42t-46.5 -40l-330 -203h-69z" />
    <glyph glyph-name="mu" unicode="&#xb5;" 
 />
    <glyph glyph-name="paragraph" unicode="&#xb6;" horiz-adv-x="1036" 
d="M936 1435v-70h-127v-1365h-82v1365h-166v-1365h-84v738q-174 8 -275.5 102.5t-101.5 245.5q0 157 107.5 253t285.5 96h443z" />
    <glyph glyph-name="periodcentered" unicode="&#xb7;" horiz-adv-x="450" 
d="M116 740l82 84q15 14 29 14q13 0 31 -16l80 -86q12 -16 12 -29q0 -15 -14 -31l-80 -88q-20 -20 -29 -20q-16 0 -29 14l-88 101q-10 13 -10 26q0 15 16 31z" />
    <glyph glyph-name="periodcentered" unicode="&#x2219;" horiz-adv-x="450" 
d="M116 740l82 84q15 14 29 14q13 0 31 -16l80 -86q12 -16 12 -29q0 -15 -14 -31l-80 -88q-20 -20 -29 -20q-16 0 -29 14l-88 101q-10 13 -10 26q0 15 16 31z" />
    <glyph glyph-name="cedilla" unicode="&#xb8;" horiz-adv-x="608" 
d="M100 -290q85 -52 152 -52q66 0 94.5 21.5t28.5 66.5t-49 64q-40 16 -102 16q-16 0 -34 -2l48 176h63l-37 -104q32 4 62 5q86 0 134 -40.5t48 -113.5q0 -76 -58.5 -120.5t-160.5 -44.5q-109 0 -189 32v96z" />
    <glyph glyph-name="uni00B9" unicode="&#xb9;" 
 />
    <glyph glyph-name="ordmasculine" unicode="&#xba;" 
 />
    <glyph glyph-name="guillemotright" unicode="&#xbb;" horiz-adv-x="869" 
d="M114 176h-14v37l205 266l-205 266v37h14l342 -303zM427 176h-14v37l205 266l-205 266v37h14l342 -303z" />
    <glyph glyph-name="onequarter" unicode="&#xbc;" 
 />
    <glyph glyph-name="onehalf" unicode="&#xbd;" 
 />
    <glyph glyph-name="threequarters" unicode="&#xbe;" 
 />
    <glyph glyph-name="questiondown" unicode="&#xbf;" 
 />
    <glyph glyph-name="Agrave" unicode="&#xc0;" 
 />
    <glyph glyph-name="Aacute" unicode="&#xc1;" 
 />
    <glyph glyph-name="Acircumflex" unicode="&#xc2;" 
 />
    <glyph glyph-name="Atilde" unicode="&#xc3;" 
 />
    <glyph glyph-name="Adieresis" unicode="&#xc4;" 
 />
    <glyph glyph-name="Aring" unicode="&#xc5;" 
 />
    <glyph glyph-name="AE" unicode="&#xc6;" 
 />
    <glyph glyph-name="Ccedilla" unicode="&#xc7;" 
 />
    <glyph glyph-name="Egrave" unicode="&#xc8;" 
 />
    <glyph glyph-name="Eacute" unicode="&#xc9;" 
 />
    <glyph glyph-name="Ecircumflex" unicode="&#xca;" 
 />
    <glyph glyph-name="Edieresis" unicode="&#xcb;" 
 />
    <glyph glyph-name="Igrave" unicode="&#xcc;" 
 />
    <glyph glyph-name="Iacute" unicode="&#xcd;" 
 />
    <glyph glyph-name="Icircumflex" unicode="&#xce;" 
 />
    <glyph glyph-name="Idieresis" unicode="&#xcf;" 
 />
    <glyph glyph-name="Eth" unicode="&#xd0;" 
 />
    <glyph glyph-name="Ntilde" unicode="&#xd1;" 
 />
    <glyph glyph-name="Ograve" unicode="&#xd2;" 
 />
    <glyph glyph-name="Oacute" unicode="&#xd3;" 
 />
    <glyph glyph-name="Ocircumflex" unicode="&#xd4;" 
 />
    <glyph glyph-name="Otilde" unicode="&#xd5;" 
 />
    <glyph glyph-name="Odieresis" unicode="&#xd6;" 
 />
    <glyph glyph-name="multiply" unicode="&#xd7;" horiz-adv-x="892" 
d="M446 618l-247 -247l-99 99l247 247l-247 248l99 98l247 -247l248 247l98 -99l-247 -247l247 -247l-99 -99z" />
    <glyph glyph-name="Oslash" unicode="&#xd8;" 
 />
    <glyph glyph-name="Ugrave" unicode="&#xd9;" 
 />
    <glyph glyph-name="Uacute" unicode="&#xda;" 
 />
    <glyph glyph-name="Ucircumflex" unicode="&#xdb;" 
 />
    <glyph glyph-name="Udieresis" unicode="&#xdc;" 
 />
    <glyph glyph-name="Yacute" unicode="&#xdd;" 
 />
    <glyph glyph-name="Thorn" unicode="&#xde;" 
 />
    <glyph glyph-name="germandbls" unicode="&#xdf;" 
 />
    <glyph glyph-name="agrave" unicode="&#xe0;" 
 />
    <glyph glyph-name="aacute" unicode="&#xe1;" 
 />
    <glyph glyph-name="acircumflex" unicode="&#xe2;" 
 />
    <glyph glyph-name="atilde" unicode="&#xe3;" 
 />
    <glyph glyph-name="adieresis" unicode="&#xe4;" 
 />
    <glyph glyph-name="aring" unicode="&#xe5;" 
 />
    <glyph glyph-name="ae" unicode="&#xe6;" 
 />
    <glyph glyph-name="ccedilla" unicode="&#xe7;" 
 />
    <glyph glyph-name="egrave" unicode="&#xe8;" 
 />
    <glyph glyph-name="eacute" unicode="&#xe9;" 
 />
    <glyph glyph-name="ecircumflex" unicode="&#xea;" 
 />
    <glyph glyph-name="edieresis" unicode="&#xeb;" 
 />
    <glyph glyph-name="igrave" unicode="&#xec;" 
 />
    <glyph glyph-name="iacute" unicode="&#xed;" 
 />
    <glyph glyph-name="icircumflex" unicode="&#xee;" 
 />
    <glyph glyph-name="idieresis" unicode="&#xef;" 
 />
    <glyph glyph-name="eth" unicode="&#xf0;" 
 />
    <glyph glyph-name="ntilde" unicode="&#xf1;" 
 />
    <glyph glyph-name="ograve" unicode="&#xf2;" 
 />
    <glyph glyph-name="oacute" unicode="&#xf3;" 
 />
    <glyph glyph-name="ocircumflex" unicode="&#xf4;" 
 />
    <glyph glyph-name="otilde" unicode="&#xf5;" 
 />
    <glyph glyph-name="odieresis" unicode="&#xf6;" 
 />
    <glyph glyph-name="divide" unicode="&#xf7;" horiz-adv-x="1040" 
d="M100 647v140h839l1 -1v-139h-840zM411 408l82 84q15 14 29 14q13 0 31 -16l80 -86q12 -16 12 -29q0 -15 -14 -31l-80 -88q-20 -20 -29 -20q-16 0 -29 14l-88 101q-10 13 -10 26q0 15 16 31zM411 1101l82 84q15 14 29 14q13 0 31 -16l80 -86q12 -16 12 -29q0 -15 -14 -31
l-80 -88q-20 -20 -29 -20q-16 0 -29 14l-88 101q-10 13 -10 26q0 15 16 31z" />
    <glyph glyph-name="oslash" unicode="&#xf8;" 
 />
    <glyph glyph-name="ugrave" unicode="&#xf9;" 
 />
    <glyph glyph-name="uacute" unicode="&#xfa;" 
 />
    <glyph glyph-name="ucircumflex" unicode="&#xfb;" 
 />
    <glyph glyph-name="udieresis" unicode="&#xfc;" 
 />
    <glyph glyph-name="yacute" unicode="&#xfd;" 
 />
    <glyph glyph-name="thorn" unicode="&#xfe;" 
 />
    <glyph glyph-name="ydieresis" unicode="&#xff;" 
 />
    <glyph glyph-name="dotlessi" unicode="&#x131;" horiz-adv-x="655" 
d="M409 223q0 -173 100 -173h46v-50h-442v50h46q100 0 100 173v432q0 77 -111 77h-48v44q222 69 261 182h48v-735z" />
    <glyph glyph-name="circumflex" unicode="&#x2c6;" horiz-adv-x="782" 
d="M100 1079l232 355h118l232 -355h-58l-233 216l-233 -216h-58z" />
    <glyph glyph-name="caron" unicode="&#x2c7;" horiz-adv-x="782" 
d="M100 1434h58l233 -214l233 214h58l-232 -356h-118z" />
    <glyph glyph-name="uni02C9" unicode="&#x2c9;" horiz-adv-x="716" 
d="M100 1195v125h516v-125h-516z" />
    <glyph glyph-name="breve" unicode="&#x2d8;" horiz-adv-x="784" 
d="M100 1349h51q17 -73 75 -107t167 -34t166 33.5t74 107.5h51q-20 -133 -94 -201.5t-197 -68.5q-122 0 -197 69t-96 201z" />
    <glyph glyph-name="dotaccent" unicode="&#x2d9;" horiz-adv-x="415" 
d="M114 1289l69 72q6 6 13 9t14 3q6 0 12.5 -3t12.5 -9l71 -76q5 -4 7 -10t2 -14q-1 -9 -3 -15t-8 -12l-71 -76q-12 -11 -16 -13.5t-7 -2.5q-10 0 -16.5 2.5t-10.5 8.5l-75 87q-4 4 -6 9.5t-2 13.5q0 6 3 12.5t11 13.5z" />
    <glyph glyph-name="ring" unicode="&#x2da;" horiz-adv-x="555" 
d="M176 1257q0 -42 29 -71t71 -29t71 29t29 71q0 40 -29.5 69.5t-70.5 29.5t-70.5 -29.5t-29.5 -69.5zM100 1257q0 75 51 126t125 51q76 0 127.5 -51.5t51.5 -125.5q0 -75 -51.5 -126.5t-127.5 -51.5q-74 0 -125 51.5t-51 126.5z" />
    <glyph glyph-name="ogonek" unicode="&#x2db;" horiz-adv-x="568" 
d="M371 0q-71 -62 -110.5 -119.5t-39.5 -112.5q0 -47 27 -75t73 -28q40 0 69.5 15.5t49.5 48.5l28 -16q-36 -63 -90.5 -97t-119.5 -34q-70 0 -114 35.5t-44 90.5q0 76 60.5 156.5t161.5 135.5h49z" />
    <glyph glyph-name="tilde" unicode="&#x2dc;" horiz-adv-x="774" 
d="M674 1382q-20 -103 -68.5 -154t-126.5 -51h-4q-50 0 -113 23q-66 24 -114 24q-39 0 -60.5 -20.5t-33.5 -71.5h-54q19 106 68 158.5t129 52.5q46 -1 113 -24q64 -23 112 -23h4q36 0 58 20t36 66h54z" />
    <glyph glyph-name="hungarumlaut" unicode="&#x2dd;" horiz-adv-x="789" 
d="M100 1079l144 273q24 44 45.5 63t46.5 19q28 0 48 -20t20 -47q0 -16 -10.5 -35t-30.5 -41l-205 -212h-58zM385 1079l144 273q24 44 45.5 63t46.5 19q28 0 48 -20t20 -47q0 -16 -10.5 -35t-30.5 -41l-205 -212h-58z" />
    <glyph glyph-name="endash" unicode="&#x2013;" horiz-adv-x="1196" 
d="M100 419v120h996v-120h-996z" />
    <glyph glyph-name="emdash" unicode="&#x2014;" horiz-adv-x="2248" 
d="M100 419v120h2048v-120h-2048z" />
    <glyph glyph-name="quoteleft" unicode="&#x2018;" horiz-adv-x="452" 
d="M233 1016q-44 0 -88.5 65.5t-44.5 151.5q0 109 71 226.5t139 117.5v-43q-73 -43 -87 -190q0 -119 129 -161v-42z" />
    <glyph glyph-name="quoteright" unicode="&#x2019;" horiz-adv-x="452" 
d="M219 1577q44 0 88.5 -65.5t44.5 -151.5q0 -109 -71 -226.5t-139 -117.5v43q73 43 87 190q0 119 -129 161v42z" />
    <glyph glyph-name="quotesinglbase" unicode="&#x201a;" horiz-adv-x="452" 
d="M219 281q44 0 88.5 -65.5t44.5 -151.5q0 -109 -71 -226.5t-139 -117.5v43q73 43 87 190q0 119 -129 161v42z" />
    <glyph glyph-name="quotedblleft" unicode="&#x201c;" horiz-adv-x="805" 
d="M233 1016q-44 0 -88.5 65.5t-44.5 151.5q0 109 71 226.5t139 117.5v-43q-73 -43 -87 -190q0 -119 129 -161v-42zM586 1016q-44 0 -88.5 65.5t-44.5 151.5q0 109 71 226.5t139 117.5v-43q-73 -43 -87 -190q0 -119 129 -161v-42z" />
    <glyph glyph-name="quotedblright" unicode="&#x201d;" horiz-adv-x="805" 
d="M219 1577q44 0 88.5 -65.5t44.5 -151.5q0 -109 -71 -226.5t-139 -117.5v43q73 43 87 190q0 119 -129 161v42zM572 1577q44 0 88.5 -65.5t44.5 -151.5q0 -109 -71 -226.5t-139 -117.5v43q73 43 87 190q0 119 -129 161v42z" />
    <glyph glyph-name="quotedblbase" unicode="&#x201e;" horiz-adv-x="805" 
d="M219 281q44 0 88.5 -65.5t44.5 -151.5q0 -109 -71 -226.5t-139 -117.5v43q73 43 87 190q0 119 -129 161v42zM572 281q44 0 88.5 -65.5t44.5 -151.5q0 -109 -71 -226.5t-139 -117.5v43q73 43 87 190q0 119 -129 161v42z" />
    <glyph glyph-name="dagger" unicode="&#x2020;" horiz-adv-x="1073" 
d="M515 1022q-8 97 -54 178q-57 101 -57 129q0 49 36 78.5t96 29.5q57 0 94.5 -27.5t37.5 -71.5q0 -32 -55 -137q-46 -85 -55 -179q96 8 177 54q101 57 129 57q49 0 79 -36t30 -96q0 -57 -27.5 -94.5t-72.5 -37.5q-32 0 -136 55q-85 46 -179 57q8 -176 110 -277
q-106 -460 -112 -974h-38q-6 514 -114 974q102 101 111 277q-96 -10 -178 -55q-101 -57 -129 -57q-49 0 -78.5 36t-29.5 96q0 57 27.5 94.5t71.5 37.5q32 0 137 -56q85 -46 179 -55z" />
    <glyph glyph-name="daggerdbl" unicode="&#x2021;" horiz-adv-x="1073" 
d="M558 186q94 11 179 57q104 55 136 55q45 0 72.5 -37.5t27.5 -94.5q0 -60 -30 -96t-79 -36q-28 0 -129 57q-81 46 -177 54q9 -94 55 -179q55 -105 55 -137q0 -44 -37.5 -71.5t-94.5 -27.5q-60 0 -96 29.5t-36 78.5q0 28 57 129q46 81 54 178q-94 -9 -179 -55
q-105 -56 -137 -56q-44 0 -71.5 37.5t-27.5 94.5q0 60 29.5 96t78.5 36q28 0 129 -57q82 -45 178 -55q-9 226 -111 398q102 171 111 397q-96 -10 -178 -55q-101 -57 -129 -57q-49 0 -78.5 36t-29.5 96q0 57 27.5 94.5t71.5 37.5q32 0 137 -56q85 -46 179 -55q-8 97 -54 178
q-57 101 -57 129q0 49 36 78.5t96 29.5q57 0 94.5 -27.5t37.5 -71.5q0 -32 -55 -137q-46 -85 -55 -179q96 8 177 54q101 57 129 57q49 0 79 -36t30 -96q0 -57 -27.5 -94.5t-72.5 -37.5q-32 0 -136 55q-85 46 -179 57q8 -226 110 -397q-102 -172 -110 -398z" />
    <glyph glyph-name="bullet" unicode="&#x2022;" horiz-adv-x="792" 
d="M100 718q0 123 87 209t210 86q122 0 208.5 -86.5t86.5 -208.5t-87.5 -209.5t-209.5 -87.5q-123 0 -209 87t-86 210z" />
    <glyph glyph-name="ellipsis" unicode="&#x2026;" horiz-adv-x="1816" 
d="M116 167l82 84q15 14 29 14q13 0 31 -16l80 -86q12 -16 12 -29q0 -15 -14 -31l-80 -88q-20 -20 -29 -20q-16 0 -29 14l-88 101q-10 13 -10 26q0 15 16 31zM799 167l82 84q15 14 29 14q13 0 31 -16l80 -86q12 -16 12 -29q0 -15 -14 -31l-80 -88q-20 -20 -29 -20
q-16 0 -29 14l-88 101q-10 13 -10 26q0 15 16 31zM1482 167l82 84q15 14 29 14q13 0 31 -16l80 -86q12 -16 12 -29q0 -15 -14 -31l-80 -88q-20 -20 -29 -20q-16 0 -29 14l-88 101q-10 13 -10 26q0 15 16 31z" />
    <glyph glyph-name="guilsinglleft" unicode="&#x2039;" horiz-adv-x="556" 
d="M100 479l342 303h14v-37l-205 -266l205 -266v-37h-14z" />
    <glyph glyph-name="guilsinglright" unicode="&#x203a;" horiz-adv-x="556" 
d="M114 176h-14v37l205 266l-205 266v37h14l342 -303z" />
    <glyph glyph-name="fraction" unicode="&#x2044;" horiz-adv-x="1224" 
d="M100 -29l940 1461h84l-938 -1461h-86z" />
    <glyph glyph-name="fraction" unicode="&#x2215;" horiz-adv-x="1224" 
d="M100 -29l940 1461h84l-938 -1461h-86z" />
    <glyph glyph-name="franc" unicode="&#x20a3;" horiz-adv-x="1218" 
d="M299 357h-194v60h194v732q0 235 -103 235h-96v50h915l103 -231h-49q-59 182 -190 182l-316 -1q-102 0 -102 -235v-352h361q100 0 100 63v58h50v-342h-50v60q0 62 -100 62h-361v-281h194v-60h-194v-72q0 -235 102 -235h97v-50h-560v50h96q103 0 103 235v72z" />
    <glyph glyph-name="lira" unicode="&#x20a4;" horiz-adv-x="1060" 
d="M772 1347q-72 31 -160 31h-2q-100 0 -190 -101q-84 -93 -84 -241q0 -15 1 -30q0 -106 33 -213h380v-60h-360q12 -30 26 -60h352v-60h-321q35 -63 35 -138q0 -161 -162 -375h402q130 0 189 132l49 -1l-103 -231h-719l1 50q187 238 187 418q0 77 -34 143l-2 2h-172v60h143
q-14 31 -26 60h-135v60h113q-36 107 -36 193q0 226 123.5 347t310.5 121q75 0 185.5 -14t110.5 -34v-161h-58q-5 61 -77 102z" />
    <glyph glyph-name="peseta" unicode="&#x20a7;" horiz-adv-x="2119" 
d="M461 1384v-662q3 -9 7 -17q41 -102 108 -153q57 -44 116 -44q10 0 19 1q68 8 127 75t87 177q22 87 22 179q0 24 -1 47q-7 116 -49.5 218.5t-108.5 144.5q-56 35 -112 35q-10 0 -21 -1h-194zM1548 908h-179v-685q0 -81 34 -119q28 -31 81 -37l-71 192l49 1
q55 -130 114 -174q57 -44 127 -44h7q92 0 151 52q59 53 59 136q0 102 -259 226q-101 52 -144 112t-43 145q0 121 73 194zM1091 910q-7 -101 -48 -194q-50 -114 -141 -177.5t-190 -63.5q-100 0 -191 64q-33 22 -60 51v-305q0 -235 102 -235h97v-50h-560v50h96q103 0 103 235
v864q0 235 -103 235h-96v50h618q92 -2 181 -62q91 -62 143 -177q50 -113 51 -237h10q216 0 216 355h50v-355h259q42 19 110 20h2q54 0 133.5 -13.5t79.5 -33.5v-159h-42q-4 66 -65.5 108t-133.5 42q-64 0 -102.5 -36.5t-38.5 -96.5q0 -108 235 -220q122 -55 167.5 -117.5
t45.5 -153.5q0 -140 -83 -231q-102 -84 -228 -86q-58 0 -105 11q-28 6 -56 6q-18 0 -36 -3q-28 -5 -59 -5q-124 0 -173.5 57t-57.5 176h-1v687h-129z" />
    <glyph glyph-name="Euro" unicode="&#x20ac;" horiz-adv-x="1311" 
d="M284 372q-62 135 -76 281h-108l17 60h87v29q0 16 1 31h-71l17 60h58q14 145 76 281q81 178 226 274t298 96q43 0 87 -8q40 -10 82 -29q8 -6 16 -6q20 0 34 45h41l84 -281l-40 -1q-49 134 -138 178q-43 22 -81 32v3q-50 16 -101 16q-17 0 -34 -2q-120 -12 -226 -113.5
t-157 -273.5q-32 -104 -39 -211h706l-17 -60h-692q0 -30 2 -60h674l-17 -60h-652q17 -158 83 -298q74 -157 193 -236q102 -68 216 -69q186 3 256 91q74 91 74 185h48v-143q0 -70 -111 -127q-105 -54 -267 -56q-181 0 -325.5 98t-223.5 274z" />
    <glyph glyph-name="afii61352" unicode="&#x2116;" 
 />
    <glyph glyph-name="trademark" unicode="&#x2122;" 
 />
    <glyph glyph-name="partialdiff" unicode="&#x2202;" horiz-adv-x="1060" 
d="M255 537q0 -41 5 -79q14 -122 61.5 -230t118.5 -165q64 -53 128 -53q6 0 13 1q70 5 127.5 70.5t80.5 179.5q16 73 16 149q0 42 -5 85q-14 122 -62.5 231.5t-119.5 165.5q-65 50 -128 50h-11q-68 -5 -126 -69.5t-82 -178.5q-16 -84 -16 -157zM960 477q0 -132 -56.5 -251
t-159 -185t-214.5 -66t-214.5 66t-159 185t-56.5 251q0 131 58 251t161 185t211 65q109 0 212 -65q29 -18 54 -41q-84 235 -233.5 377t-326.5 155v55q306 0 515 -285t209 -697z" />
    <glyph glyph-name="Delta" unicode="&#x2206;" horiz-adv-x="1267" 
d="M608 1195l-406 -1072h801zM641 1434l526 -1434h-1067z" />
    <glyph glyph-name="product" unicode="&#x220f;" horiz-adv-x="1619" 
d="M563 1384q-102 0 -102 -235v-1281q0 -235 102 -235h97v-51h-560v51h96q103 0 103 235v1281q0 235 -103 235h-96v50h1419v-50h-97q-102 0 -102 -235v-1281q0 -235 102 -235h97v-50h-560v50h96q103 0 103 235v1281q0 235 -103 235h-492z" />
    <glyph glyph-name="summation" unicode="&#x2211;" horiz-adv-x="1224" 
d="M1039 548l-788 -914h635q130 0 189 182h49l-103 -232h-921v50q62 0 106 53l663 781l-663 859q-44 57 -106 57v50h921l103 -232h-49q-59 182 -189 182h-485z" />
    <glyph glyph-name="minus" unicode="&#x2212;" horiz-adv-x="1040" 
d="M100 647v140h839l1 -1v-139h-840z" />
    <glyph glyph-name="radical" unicode="&#x221a;" horiz-adv-x="1237" 
d="M264 0l-164 359l74 35l85 -185l728 1470h150v-60h-72z" />
    <glyph glyph-name="infinity" unicode="&#x221e;" horiz-adv-x="1085" 
d="M473 755q-15 103 -74 133q-46 22 -84 22q-12 0 -23 -2q-49 -10 -92.5 -44.5t-65.5 -84.5q-20 -46 -20 -90v-8q2 -48 27.5 -89t71.5 -58q29 -11 61 -11q16 0 33 3q47 10 90.5 43.5t75.5 185.5zM500 687q12 -96 94 -153q69 -48 123 -48q11 0 21 2q62 12 117.5 52t84.5 101
q26 54 26 108v11q-2 60 -35.5 108.5t-91.5 68.5q-37 13 -76 13q-22 0 -44 -4q-67 -9 -127 -62t-92 -197zM484 827q9 35 21 69q34 88 95 137t128 49t128 -48t95 -135t34 -182t-34 -182t-95 -135t-128 -48t-128 49t-95 136q-12 35 -21 70q-5 -21 -12 -41q-27 -73 -74 -113
t-99 -40t-100 41t-73.5 113.5t-25.5 149.5q0 76 25.5 149t73.5 114t100 41t99 -40t74 -112q7 -21 12 -42z" />
    <glyph glyph-name="integral" unicode="&#x222b;" horiz-adv-x="997" 
d="M160 -281q-60 0 -60 29v159h36q1 -43 34.5 -64.5t63.5 -21.5h1q82 0 115 162q32 162 40 316l70 734l8 62q27 238 135 429.5t234 191.5q60 0 60 -29v-159h-36q-1 43 -35 64.5t-63 21.5q-71 0 -116 -155.5t-49 -363.5l-73 -767q-20 -231 -130.5 -420t-234.5 -189z" />
    <glyph glyph-name="approxequal" unicode="&#x2248;" horiz-adv-x="1029" 
d="M929 1053v-156q-63 -72 -122 -97.5t-116 -25.5q-60 0 -177.5 48.5t-176.5 48.5q-51 0 -107.5 -28t-129.5 -112v156q64 73 123 99t114 26q64 0 181.5 -49.5t172.5 -49.5q52 0 108.5 28t129.5 112zM929 705v-156q-63 -72 -122 -97.5t-116 -25.5q-60 0 -177.5 48.5
t-176.5 48.5q-51 0 -107.5 -28t-129.5 -112v156q64 73 123 99t114 26q64 0 181.5 -49.5t172.5 -49.5q52 0 108.5 28t129.5 112z" />
    <glyph glyph-name="lessequal" unicode="&#x2264;" horiz-adv-x="1040" 
d="M940 1074l-625 -359l625 -355v-167l-840 481v83l840 484v-167zM100 1v140h839l1 -1v-139h-840z" />
    <glyph glyph-name="greaterequal" unicode="&#x2265;" horiz-adv-x="1040" 
d="M100 1241l840 -484v-83l-840 -481v167l625 355l-625 359v167zM100 2v140h839l1 -1v-139h-840z" />
    </font>
</defs>
</svg>
